# xmcd
#
# Track frame offsets: 
#        150
#        16736
#        33914
#        49636
#        64480
#        76301
#        106874
#        131101
#        152423
#        166807
#        182167
#        196537
#
# Disc length: 2879 seconds
#
# Revision: 0
# Processed by: cddbd v1.5.2PL0 Copyright (c) Steve Scherf et al.
# Submitted via: ExactAudioCopy v0.95b3
#
DISCID=8a0b3d0c
DTITLE=The Kinks  - Arthur or The Decline and Fall of the British Empi
DTITLE=re - The Pye Years
DYEAR=1900
DGENRE=
TTITLE0=Victoria
TTITLE1=Yes Sir, No Sir
TTITLE2=Some Mother's Son
TTITLE3=Drivin'
TTITLE4=Brain Washed
TTITLE5=Australia
TTITLE6=Shangri-La
TTITLE7=Mr. Churchill Says
TTITLE8=She's Bought A Hat Like Princess Marina
TTITLE9=Young And Innocent Days
TTITLE10=Nothing To Say
TTITLE11=Arthur
EXTD=
EXTT0=
EXTT1=
EXTT2=
EXTT3=
EXTT4=
EXTT5=
EXTT6=
EXTT7=
EXTT8=
EXTT9=
EXTT10=
EXTT11=
PLAYORDER=
